<svg xmlns="http://www.w3.org/2000/svg" xmlns:xlink="http://www.w3.org/1999/xlink" width="200" height="60" viewBox="0 0 200 60">
    <defs>
        <path id="4dzwwt7p1a" d="M0 20.249L184.996 20.249 184.996 0.012 0 0.012z"/>
    </defs>
    <g fill="none" fill-rule="evenodd">
        <g>
            <g>
                <path d="M0 0H200V60H0z"/>
                <path fill="#FF3C42" d="M160.837 33.083L165.45 33.083 165.45 43.983 168.162 43.983 168.162 33.083 172.775 33.083 172.775 30.622 160.837 30.622z"/>
                <g transform="translate(2 27.172)">
                    <path fill="#FF3C42" d="M58.385 15.249c-2.7 0-4.812-2.317-4.812-5.119 0-2.8 2.113-5.042 4.812-5.042 2.7 0 4.813 2.241 4.813 5.042 0 2.802-2.113 5.119-4.813 5.119m0-12.58c-4.1 0-7.512 3.361-7.512 7.461s3.412 7.461 7.512 7.461 7.513-3.36 7.513-7.46-3.413-7.462-7.513-7.462M68.059 16.811L70.771 16.811 70.771 5.911 78.708 5.911 78.708 16.811 81.42 16.811 81.42 3.449 68.059 3.449z"/>
                    <path fill="#FF3C42" d="M50.586 3.449L47.171 3.449 40.415 10.08 47.547 16.811 51.063 16.811 43.805 10.08zM37.702 3.449L37.702 16.811 40.415 16.811 40.415 10.08 40.415 3.449zM83.035 16.811L86.149 16.811 90.419 8.347 94.688 16.811 97.802 16.811 90.419 3.073zM132.742 16.811L135.782 16.811 139.753 8.907 143.724 16.811 146.764 16.811 139.753 3.073zM114.736 8.899L108.334 8.899 108.334 3.45 105.622 3.45 105.622 16.811 108.334 16.811 108.334 11.361 114.736 11.361 114.736 16.811 117.448 16.811 117.448 3.45 114.736 3.45zM182.284 8.899L175.882 8.899 175.882 3.45 173.169 3.45 173.169 16.811 175.882 16.811 175.882 11.361 182.284 11.361 182.284 16.811 184.996 16.811 184.996 3.45 182.284 3.45zM151.149 14.349L151.149 3.45 148.436 3.45 148.436 14.349 148.436 16.811 159.293 16.811 159.293 14.349zM120.326 3.449L120.326 16.811 131.145 16.811 131.145 14.349 123.038 14.349 123.038 11.361 131.145 11.361 131.145 8.899 123.038 8.899 123.038 5.911 131.145 5.911 131.145 3.449z"/>
                    <mask id="jpxtkfv66b" fill="#fff">
                        <use xlink:href="#4dzwwt7p1a"/>
                    </mask>
                    <path fill="#FF3C42" d="M20.214 20.249L25.346 20.249 25.346 12.518 20.214 12.518zM20.214 7.742L25.346 7.742 25.346.012 20.214.012z" mask="url(#jpxtkfv66b)"/>
                    <path fill="#056BFF" d="M20.214 7.742L12.673 7.742 12.673 0.023 7.541 0.023 7.541 7.742 0 7.742 0 12.518 7.541 12.518 7.541 20.237 12.673 20.237 12.673 12.518 20.214 12.518z" mask="url(#jpxtkfv66b)"/>
                </g>
            </g>
        </g>
    </g>
</svg>
